# xmcd
#
# Track frame offsets:
#	150
#	13019
#	38637
#	55171
#	69094
#	84092
#	98147
#	116446
#	132719
#	154300
#	164640
#	194425
#	208188
#	225933
#	253158
#	268600
#	291903
#
# Disc length: 4063 seconds
#
# Revision: 1
# Processed by: cddbd v1.5.1PL0 Copyright (c) Steve Scherf et al.
# Submitted via: MusicWizard 7.1.1b
#
DISCID=ed0fdd11
DTITLE=Waters, Spann, Bloomfield, Miles, Butterfield U.A. - Fathers and Sons
DYEAR=1900
DGENRE=Blues
TTITLE0=All Aboard
TTITLE1=Mean Disposition
TTITLE2=Blow Wind Blow
TTITLE3=Can´t Lose What You Ain´t Never Had
TTITLE4=Walkin´ Thru The Park
TTITLE5=Forty Days And Forty Nights
TTITLE6=Standin´ Round Cryin´
TTITLE7=I´m Ready
TTITLE8=Twenty Four Hours
TTITLE9=Sugar Sweet
TTITLE10=Long Distance Call
TTITLE11=Baby Please Don´t Go
TTITLE12=Honey Bee
TTITLE13=The Same Thing
TTITLE14=Got My Mojo Working,  Part One
TTITLE15=Got My Mojo Working,  Part Two
TTITLE16=Live The Life I Love
EXTD=
EXTT0=
EXTT1=
EXTT2=
EXTT3=
EXTT4=
EXTT5=
EXTT6=
EXTT7=
EXTT8=
EXTT9=
EXTT10=
EXTT11=
EXTT12=
EXTT13=
EXTT14=
EXTT15=
EXTT16=
PLAYORDER=
